<?xml version="1.0" encoding="utf-8"?>
<!-- Generator: Adobe Illustrator 27.3.1, SVG Export Plug-In . SVG Version: 6.00 Build 0)  -->
<svg version="1.1" id="Layer_1" xmlns="http://www.w3.org/2000/svg" xmlns:xlink="http://www.w3.org/1999/xlink" x="0px" y="0px"
	 viewBox="0 0 1000 464" style="enable-background:new 0 0 1000 464;" xml:space="preserve">
<style type="text/css">
	.st0{fill:#FFFFFF;}
</style>
<g>
	<g>
		<path class="st0" d="M0,285.8c0-26,14-48.8,43.6-48.8s44.3,22.8,44.3,48.8c0,26-14.4,49-44,49S0,311.8,0,285.8z M43.6,250.7
			c-19.3,0-27.5,16.8-27.5,35.2c0,18.5,8.4,35.2,27.9,35.2s27.9-16.6,27.9-35.2C71.8,267.5,63,250.7,43.6,250.7z"/>
	</g>
	<g>
		<path class="st0" d="M135,255.1c5.4-12,18-18.1,28.4-18.1c22.6,0,33.5,14.8,33.5,38.7V333H181v-57.2c0-16.6-6.5-24.5-20.9-24.5
			c-20.4,0-25.1,24.5-25.1,40.8v41h-15.9v-94.1h14.4L135,255.1z"/>
	</g>
	<g>
		<path class="st0" d="M300.4,200.2h15.9V251c5.2-7.7,16.6-14,28.2-14c28.6,0,41.9,23.9,41.9,48.6c0,25.3-13.5,49.2-41.9,49.2
			c-10.3,0-22.8-4.7-28.2-13.7L315,333h-14.6V200.2z M316.3,285.6c0,14.4,4.7,35.4,28.2,35.4c17.8,0,25.4-16.8,25.4-35.4
			c0-18.1-7.7-35-25.4-35C320.7,250.7,316.3,271.6,316.3,285.6z"/>
	</g>
	<g>
		<path class="st0" d="M410,333v-12.9h36.1V212.9h-27.9v-12.7h43.6v119.9h36.1V333H410z"/>
	</g>
	<g>
		<path class="st0" d="M598.2,275.2v33.3l5.1,24.5h-14.4l-5.1-14.4c-5,8.2-18.7,16.3-31.8,16.3c-22.3,0-32.7-13.7-32.7-26.4
			c0-33.3,38.1-33.3,63.2-33.3c0-13.8-4.9-23.7-21.1-23.7c-11,0-20.9,4.5-21.9,16.1H524c0-20.4,20-30.5,37.6-30.5
			C582.7,237,598.2,251.2,598.2,275.2z M535.7,308.5c0,8,6.2,12,17,12c7.5,0,31-1.9,29.7-32.9C557.1,287.5,535.7,287.5,535.7,308.5z
			"/>
	</g>
	<g>
		<path class="st0" d="M632.2,333v-12.9h36.1V252h-27.9v-13.1H684v81.2h36.1V333H632.2z M663.5,200.2h20.6v19.1h-20.6V200.2z"/>
	</g>
	<g>
		<path class="st0" d="M747.8,333v-94.1h14.4l1.3,16.3c5.6-12,20.6-18.1,31.4-18.1c19.5,0,30.1,11.4,32.3,30.5h-15.5
			c-0.9-11.8-10.6-16.1-20.9-16.1c-22.4,0-27.3,24.3-27.3,40.6v41H747.8z"/>
	</g>
</g>
<g>
	<g>
		<path class="st0" d="M3.7,1.6h16.7V55c5.5-8.1,17.5-14.7,29.6-14.7c30,0,44,25.1,44,51c0,26.5-14.1,51.6-44,51.6
			c-10.8,0-23.9-4.9-29.6-14.3L19,140.9H3.7V1.6z M20.4,91.3c0,15.1,4.9,37.1,29.6,37.1c18.6,0,26.7-17.7,26.7-37.1
			c0-19-8.1-36.7-26.7-36.7C25.1,54.6,20.4,76.6,20.4,91.3z"/>
	</g>
	<g>
		<path class="st0" d="M121,140.9V42.2h15.1l1.4,17.1c5.9-12.6,21.6-19,33-19c20.4,0,31.6,12,33.9,32h-16.3
			c-1-12.4-11.2-16.9-22-16.9c-23.5,0-28.6,25.5-28.6,42.6v43H121z"/>
	</g>
	<g>
		<path class="st0" d="M311.2,111.5c-5.7,19.6-20,31.4-43,31.4c-30.2,0-45.1-20.6-45.1-49.8c0-29,14.9-52.8,45.5-52.8
			c31.8,0,44.7,25.5,44.7,54.3v3.5h-73.2c0,17.8,13,30.2,28.5,30.2c11,0,20.6-6.5,25.3-16.9H311.2z M296.1,84.4
			c0-15.7-11.2-29.8-27.9-29.8c-18.6,0-27.5,18.1-27.9,29.8H296.1z"/>
	</g>
	<g>
		<path class="st0" d="M420.9,42.2h16.5l-13.3,98.7h-18.8L386,85.2l-19.2,55.7H348l-13.5-98.7h16.7l9.2,81.4l19.2-55.9h13l19.2,55.9
			L420.9,42.2z"/>
	</g>
	<g>
		<path class="st0" d="M771.5,183.2h-19.9v-50.6c-6.8,7.2-17.7,11.9-28.2,11.9c-31.4,0-45.4-26.4-45.4-52.6
			c0-26.5,14-53.2,45.4-53.2c9.2,0,21.1,3.5,28.2,11.1v-9.2h19.9V183.2z M754.9,179.9h13.4V43.9h-13.4v16.6l-3-5
			c-5.6-9.3-18.7-13.5-28.4-13.5c-29.1,0-42.1,25.1-42.1,50c0,24.6,13,49.4,42.1,49.4c11,0,23-6,28.5-14.2l3-4.5V179.9z M723.4,130
			c-17.1,0-28.1-15-28.1-38.1c0-18.8,7.3-38.9,27.9-38.9c29.4,0,31.7,29.8,31.7,38.9C754.9,103.4,751.8,130,723.4,130z M723.2,56.2
			c-18.2,0-24.7,18.4-24.7,35.7c0,16.9,6.5,34.9,24.9,34.9c24.5,0,28.2-21.8,28.2-34.9C751.6,81.2,748.8,56.2,723.2,56.2z"/>
	</g>
	<g>
		<path class="st0" d="M837,144.5c-23.6,0-36.5-15-36.5-42.2V40.6h19.9v61.7c0,18.1,5.3,24.5,20.1,24.5c18.6,0,24.9-16.8,24.9-24.5
			V40.6h19.9v101.9h-19.9l0-12.7C858.3,139.9,846.6,144.5,837,144.5z M803.7,43.9v58.4c0,25.1,11.8,39,33.3,39
			c10.1,0,22.9-5.7,28.6-18.3l3.1-7l0,23.3h13.4V43.9h-13.4v58.4c0,8.7-7.1,27.7-28.1,27.7c-19.4,0-23.4-11.1-23.4-27.7V43.9H803.7z
			"/>
	</g>
	<g>
		<path class="st0" d="M953.2,144.5c-29.3,0-46.8-19.2-46.8-51.5c0-33.1,18.5-54.4,47.1-54.4c29,0,46.4,20.9,46.4,56v5.2h-73.2
			c0.7,15.5,12,27,26.8,27c10.3,0,19.4-6.1,23.8-15.9l0.4-1h20.5l-0.6,2.1C991.7,133,975.9,144.5,953.2,144.5z M953.6,41.9
			c-32.4,0-43.9,26.4-43.9,51.2c0,30.6,15.9,48.2,43.5,48.2c20.6,0,34.7-9.7,40.8-28.2h-14c-5.1,10.4-15.1,16.9-26.4,16.9
			c-17.1,0-30.1-13.7-30.1-31.8v-1.6h73.2v-1.9C996.7,61.6,980.6,41.9,953.6,41.9z M982.7,86.1h-59l0.1-1.7
			c0.4-12.7,10.1-31.4,29.5-31.4c16.5,0,29.5,13.8,29.5,31.4V86.1z M927.1,82.8h52.3c-0.7-13.3-10.4-26.6-26.2-26.6
			C936.8,56.2,928.2,71.5,927.1,82.8z"/>
	</g>
	<g>
		<g>
			<path class="st0" d="M624.8,23.3H600V0h24.8V23.3z M603.2,20h18.3V3.2h-18.3V20z"/>
		</g>
		<g>
			<path class="st0" d="M662.6,142.6H530.8c-19.8,0-43.4-7.3-43.4-42.2V57.6h-33.2v-17h33.2v-30h19.9v30h42.4v17h-42.4v42.7
				c0,20.3,9.4,24.5,23.5,24.5H605V57.6h-29.3v-17h49v84.2h37.9V142.6z M457.5,54.4h33.2v46c0,32.2,21.8,39,40.2,39h128.5V128h-37.9
				V43.9H579v10.5h29.3V128h-77.5c-13.2,0-26.7-3.3-26.7-27.7v-46h42.4V43.9h-42.4v-30h-13.4v30h-33.2V54.4z"/>
		</g>
	</g>
</g>
<g>
	<path class="st0" d="M7.3,439.2c-1,0.4-1.6,1.6-1.6,2.6c0,1.6,1.9,3.1,5,3.1h2.7c8,0,14.7,2.2,14.7,9.6c0,7.3-6.7,9.6-14.7,9.6
		c-6.7,0-13.4-3-13.4-9.8c0-3.3,1.7-4.9,3.9-6.3c-4.5-2.5-3.4-8.1,1-10.5c-2.1-2-3.4-4.8-3.4-8.1c0-6.7,5.3-11.3,11.9-11.3
		c3.1,0,5.9,0.9,8.1,2.7l3.3-5.4l4.3,3.4l-5.1,5.1c0.9,1.6,1.4,3.5,1.4,5.6c0,6.7-5.3,11.4-12,11.4C11.2,440.7,9.1,440.1,7.3,439.2z
		 M10.7,449.4c-0.5,0-1.1,0-1.7-0.1c-3.3,0.9-4,3.2-4,4.8c0,2,1.2,5.5,8.3,5.5c8,0,9.4-2.8,9.4-5.1c0-2.4-1.3-5.1-9.4-5.1H10.7z
		 M6.4,429.3c0,4,3,6.7,7,6.7c4,0,7-2.7,7-6.7c0-4-3-6.8-7-6.8C9.4,422.5,6.4,425.3,6.4,429.3z"/>
	<path class="st0" d="M37,449.4v-4.2h11.8v-35h-9.1V406H54v39.2h11.8v4.2H37z"/>
	<path class="st0" d="M75.6,437.3v-18.7h5.2v18.7c0,5.4,1.5,8.1,6.8,8.1c6.1,0,8.3-5.4,8.3-8.1v-18.7h5.2v30.7h-4.8l-0.4-5.4
		c-1.8,4-5.9,6-9.4,6C79.1,450,75.6,445.1,75.6,437.3z"/>
	<path class="st0" d="M119.8,409.3h5.2v9.4h13.2v4.3H125v14.4c0,6.7,3.2,8.1,7.8,8.1c1.8,0,4-0.6,5.4-1.3v5.2
		c-1.3,0.3-3.4,0.6-5.4,0.6c-7.3,0-13-3.3-13-12.7v-14.4h-10.3v-4.3h10.3V409.3z"/>
	<path class="st0" d="M176.3,440.2c-1.8,6.1-6.2,9.8-13.4,9.8c-9.4,0-14.1-6.4-14.1-15.5c0-9,4.6-16.4,14.2-16.4
		C173,418,177,426,177,435v1.1h-22.8c0,5.6,4,9.4,8.9,9.4c3.4,0,6.4-2,7.9-5.3H176.3z M171.6,431.8c0-4.9-3.5-9.3-8.7-9.3
		c-5.8,0-8.6,5.6-8.7,9.3H171.6z"/>
	<path class="st0" d="M193.2,424c1.8-3.9,5.9-5.9,9.3-5.9c7.4,0,10.9,4.8,10.9,12.7v18.7h-5.2v-18.7c0-5.4-2.1-8-6.8-8
		c-6.7,0-8.2,8-8.2,13.3v13.4H188v-30.7h4.7L193.2,424z"/>
	<path class="st0" d="M270.6,449.4v-26.5h-10.4v-4.3h10.4c0-9.4,5.7-12.7,12.3-12.7c1.3,0,4.6,0.3,6,0.6v5.3c-1.3-0.7-4.6-1.3-6-1.3
		c-4,0-7.2,1.4-7.2,8.1h13.2v4.3h-13.2v26.5H270.6z"/>
	<path class="st0" d="M301.9,449.4v-30.7h4.7l0.4,5.3c1.8-3.9,6.7-5.9,10.3-5.9c6.4,0,9.8,3.7,10.6,10h-5.1
		c-0.3-3.9-3.5-5.3-6.8-5.3c-7.3,0-8.9,7.9-8.9,13.3v13.4H301.9z"/>
	<path class="st0" d="M362.7,440.2c-1.8,6.1-6.2,9.8-13.4,9.8c-9.4,0-14.1-6.4-14.1-15.5c0-9,4.6-16.4,14.2-16.4
		c9.9,0,13.9,7.9,13.9,16.9v1.1h-22.8c0,5.6,4,9.4,8.9,9.4c3.4,0,6.4-2,7.9-5.3H362.7z M358,431.8c0-4.9-3.5-9.3-8.7-9.3
		c-5.8,0-8.6,5.6-8.7,9.3H358z"/>
	<path class="st0" d="M400,440.2c-1.8,6.1-6.2,9.8-13.4,9.8c-9.4,0-14.1-6.4-14.1-15.5c0-9,4.6-16.4,14.2-16.4
		c9.9,0,13.9,7.9,13.9,16.9v1.1h-22.8c0,5.6,4,9.4,8.9,9.4c3.4,0,6.4-2,7.9-5.3H400z M395.3,431.8c0-4.9-3.5-9.3-8.7-9.3
		c-5.8,0-8.6,5.6-8.7,9.3H395.3z"/>
</g>
</svg>
